<svg width="41" height="41" viewBox="0 0 41 41" fill="none" xmlns="http://www.w3.org/2000/svg">
<circle cx="20.5" cy="20.5" r="20.5" fill="#4F4F4F"/>
<path d="M20.1135 14.6982C20.9342 14.6982 21.7212 15.0243 22.3015 15.6046C22.8818 16.1849 23.2078 16.9719 23.2078 17.7926C23.2078 18.6133 22.8818 19.4003 22.3015 19.9806C21.7212 20.5609 20.9342 20.8869 20.1135 20.8869C19.2928 20.8869 18.5058 20.5609 17.9255 19.9806C17.3452 19.4003 17.0191 18.6133 17.0191 17.7926C17.0191 16.9719 17.3452 16.1849 17.9255 15.6046C18.5058 15.0243 19.2928 14.6982 20.1135 14.6982ZM20.1135 16.2454C19.7031 16.2454 19.3096 16.4084 19.0195 16.6986C18.7293 16.9887 18.5663 17.3822 18.5663 17.7926C18.5663 18.2029 18.7293 18.5964 19.0195 18.8866C19.3096 19.1767 19.7031 19.3398 20.1135 19.3398C20.5238 19.3398 20.9173 19.1767 21.2075 18.8866C21.4976 18.5964 21.6607 18.2029 21.6607 17.7926C21.6607 17.3822 21.4976 16.9887 21.2075 16.6986C20.9173 16.4084 20.5238 16.2454 20.1135 16.2454ZM20.1135 21.6605C22.179 21.6605 26.3022 22.6894 26.3022 24.7548V27.0756H13.9248V24.7548C13.9248 22.6894 18.048 21.6605 20.1135 21.6605ZM20.1135 23.1303C17.8159 23.1303 15.3946 24.2598 15.3946 24.7548V25.6058H24.8324V24.7548C24.8324 24.2598 22.411 23.1303 20.1135 23.1303Z" fill="white"/>
</svg>
