<svg width="35" height="20" viewBox="0 0 35 20" fill="none" xmlns="http://www.w3.org/2000/svg">
<path d="M9.54545 12C12.1864 12 14.3182 10.2133 14.3182 8C14.3182 5.78667 12.1864 4 9.54545 4C6.90455 4 4.77273 5.78667 4.77273 8C4.77273 10.2133 6.90455 12 9.54545 12ZM9.54545 6.66667C10.4205 6.66667 11.1364 7.26667 11.1364 8C11.1364 8.73333 10.4205 9.33333 9.54545 9.33333C8.67045 9.33333 7.95455 8.73333 7.95455 8C7.95455 7.26667 8.67045 6.66667 9.54545 6.66667ZM28.6364 2.66667H15.9091V13.3333H3.18182V0H0V20H3.18182V16H31.8182V20H35V8C35 5.05333 32.1523 2.66667 28.6364 2.66667ZM31.8182 13.3333H19.0909V5.33333H28.6364C30.3864 5.33333 31.8182 6.53333 31.8182 8V13.3333Z" fill="#FC0000"/>
</svg>
