<svg width="50" height="50" viewBox="0 0 50 50" fill="none" xmlns="http://www.w3.org/2000/svg">
<path d="M25.0003 10.4163C22.6878 10.4163 20.8337 12.2705 20.8337 14.583C20.8337 16.8955 22.6878 18.7497 25.0003 18.7497C27.3128 18.7497 29.167 16.8955 29.167 14.583C29.167 12.2705 27.3128 10.4163 25.0003 10.4163ZM45.8337 2.08301V12.4997H41.667V8.33301H8.33366V12.4997H4.16699V2.08301H8.33366V6.24967H41.667V2.08301H45.8337ZM31.2503 23.458V47.9163H27.0837V37.4997H22.917V47.9163H18.7503V23.458C14.4378 21.1872 11.4587 16.6663 11.4587 11.458V10.4163H15.6253V11.458C15.6253 16.6663 19.792 20.833 25.0003 20.833C30.2087 20.833 34.3753 16.6663 34.3753 11.458V10.4163H38.542V11.458C38.542 16.6663 35.5628 21.1872 31.2503 23.458Z" fill="#FC0000"/>
</svg>
