<svg width="50" height="50" viewBox="0 0 50 50" fill="none" xmlns="http://www.w3.org/2000/svg">
<path d="M41.4587 6.25008C40.2087 4.16675 37.7087 3.54175 35.8337 4.79175L14.3753 17.0834C13.7503 16.8751 13.1253 16.6667 12.5003 16.6667C8.95866 16.6667 6.25033 19.3751 6.25033 22.9167V41.6667C5.00033 41.6667 4.16699 42.5001 4.16699 43.7501V45.8334H20.8337V43.7501C20.8337 42.5001 20.0003 41.6667 18.7503 41.6667V24.1668L39.792 12.0834C41.8753 10.8334 42.5003 8.33342 41.4587 6.25008ZM15.6253 41.6667H9.37533V28.3334C11.2503 29.3751 13.7503 29.3751 15.6253 28.3334V41.6667ZM12.5003 26.0417C10.8337 26.0417 9.37533 24.5834 9.37533 22.9167C9.37533 21.2501 10.8337 19.7917 12.5003 19.7917C14.167 19.7917 15.6253 21.2501 15.6253 22.9167C15.6253 24.5834 14.167 26.0417 12.5003 26.0417ZM21.667 20.0001L16.8753 17.9168L19.5837 16.2501L24.3753 18.3334L21.667 20.0001ZM28.9587 15.8334L24.167 13.7501L26.8753 12.0834L31.667 14.1668L28.9587 15.8334ZM36.042 11.6667L31.2503 9.58342L33.9587 7.91675L38.7503 10.0001L36.042 11.6667Z" fill="#FC0000"/>
</svg>
