<svg width="50" height="50" viewBox="0 0 50 50" fill="none" xmlns="http://www.w3.org/2000/svg">
<path d="M45.8337 20.833H37.5003V14.583C37.5003 11.1247 34.7087 8.33301 31.2503 8.33301C27.792 8.33301 25.0003 11.1247 25.0003 14.583H29.167C29.167 13.4372 30.1045 12.4997 31.2503 12.4997C32.3962 12.4997 33.3337 13.4372 33.3337 14.583V20.833H16.667C18.9587 20.833 20.8337 18.958 20.8337 16.6663V8.33301H8.33366V16.6663C8.33366 18.958 10.2087 20.833 12.5003 20.833H4.16699V24.9997H8.33366V41.6663H41.667V24.9997H45.8337V20.833ZM12.5003 12.4997H16.667V16.6663H12.5003V12.4997ZM12.5003 37.4997V24.9997H22.917V37.4997H12.5003ZM37.5003 37.4997H27.0837V24.9997H37.5003V37.4997Z" fill="#FC0000"/>
</svg>
