<svg width="50" height="50" viewBox="0 0 50 50" fill="none" xmlns="http://www.w3.org/2000/svg">
<path d="M4.16699 31.2503C7.64616 29.6878 11.1045 28.1253 14.5837 27.4378V10.417C14.5837 8.75939 15.2421 7.16968 16.4142 5.99757C17.5863 4.82547 19.1761 4.16699 20.8337 4.16699C23.5628 4.16699 25.8753 5.89616 26.7295 8.33366H20.8337C20.2811 8.33366 19.7512 8.55315 19.3605 8.94385C18.9698 9.33455 18.7503 9.86446 18.7503 10.417V12.5003H29.167V10.417C29.167 8.75939 29.8255 7.16968 30.9976 5.99757C32.1697 4.82547 33.7594 4.16699 35.417 4.16699C38.1462 4.16699 40.4587 5.89616 41.3128 8.33366H35.417C34.8645 8.33366 34.3346 8.55315 33.9439 8.94385C33.5532 9.33455 33.3337 9.86446 33.3337 10.417V31.1253C37.5003 30.4587 41.667 27.0837 45.8337 27.0837V31.2503C41.2087 31.2503 36.5837 35.417 31.9378 35.417C27.3128 35.417 22.6878 31.2503 18.0628 31.2503C13.417 31.2503 8.79199 33.3337 4.16699 35.417V31.2503ZM29.167 16.667H18.7503V20.8337H29.167V16.667ZM29.167 25.0003H18.7503V27.0837C22.2295 27.417 25.6878 29.8128 29.167 30.8128V25.0003ZM4.16699 39.5837C8.79199 37.5003 13.417 35.417 18.0628 35.417C22.6878 35.417 27.3128 39.5837 31.9378 39.5837C36.5837 39.5837 41.2087 35.417 45.8337 35.417V39.5837C41.2087 39.5837 36.5837 43.7503 31.9378 43.7503C27.3128 43.7503 22.6878 39.5837 18.0628 39.5837C13.417 39.5837 8.79199 41.667 4.16699 43.7503V39.5837Z" fill="#FC0000"/>
</svg>
