<svg width="50" height="50" viewBox="0 0 50 50" fill="none" xmlns="http://www.w3.org/2000/svg">
<path d="M20.8333 20.8337V25.0003H16.6667V20.8337H20.8333ZM33.3333 25.0003V20.8337H29.1667V25.0003H33.3333ZM43.75 29.167V45.8337H6.25V29.167H8.33333V20.8337C8.33333 11.6253 15.7917 4.16699 25 4.16699C34.2083 4.16699 41.6667 11.6253 41.6667 20.8337V29.167H43.75ZM14.5833 33.3337H10.4167V41.667H14.5833V33.3337ZM22.9167 33.3337H18.75V41.667H22.9167V33.3337ZM22.9167 8.50033C17 9.50033 12.5 14.6462 12.5 20.8337V29.167H22.9167V8.50033ZM27.0833 29.167H37.5V20.8337C37.5 14.6462 33 9.50033 27.0833 8.50033V29.167ZM31.25 33.3337H27.0833V41.667H31.25V33.3337ZM39.5833 33.3337H35.4167V41.667H39.5833V33.3337Z" fill="#FC0000"/>
</svg>
