<svg width="50" height="50" viewBox="0 0 50 50" fill="none" xmlns="http://www.w3.org/2000/svg">
<path d="M41.667 25.0003H8.33366L4.16699 45.8337H45.8337L41.667 25.0003ZM38.2503 29.167L39.0837 33.3337H27.0837V29.167H38.2503ZM22.917 29.167V33.3337H10.917L11.7503 29.167H22.917ZM10.0837 37.5003H22.917V41.667H9.25033L10.0837 37.5003ZM27.0837 41.667V37.5003H39.917L40.7503 41.667H27.0837ZM22.917 16.667H27.0837V22.917H22.917V16.667ZM32.8337 15.0212L35.792 12.0628L40.2087 16.4795L37.2712 19.4378L32.8337 15.0212ZM9.81283 16.4795L14.2295 12.0628L17.167 15.0212L12.7503 19.4378L9.81283 16.4795ZM6.25033 4.16699H12.5003V8.33366H6.25033V4.16699ZM37.5003 4.16699H43.7503V8.33366H37.5003V4.16699ZM25.0003 14.5837C30.7503 14.5837 35.417 9.91699 35.417 4.16699H31.2503C31.2503 7.60449 28.4378 10.417 25.0003 10.417C21.5628 10.417 18.7503 7.60449 18.7503 4.16699H14.5837C14.5837 9.91699 19.2503 14.5837 25.0003 14.5837Z" fill="#FC0000"/>
</svg>
