<svg width="50" height="50" viewBox="0 0 50 50" fill="none" xmlns="http://www.w3.org/2000/svg">
<path d="M39.5837 29.167H36.667V45.8337H39.5837V29.167ZM13.417 45.8337H10.417L14.5837 29.167H17.5837L13.417 45.8337ZM18.2503 19.8753V27.0837H14.5837V17.3337L24.1878 13.1462C25.0837 12.792 26.042 12.7712 27.0003 13.0628C27.9587 13.3545 28.7295 13.9378 29.292 14.792L31.2503 17.8753C32.0212 19.2712 33.1253 20.7295 34.6253 21.6045C36.1045 22.4795 37.7712 22.917 39.5837 22.917V26.7295C37.5003 26.7295 35.417 26.292 33.6045 25.417C31.792 24.542 30.2087 23.042 28.917 21.6045L27.7295 27.417L31.8337 31.2503V45.8337H27.917V34.3753L23.9587 30.3128L20.3545 45.8337H16.2503L21.7295 18.5212L18.2503 19.8753ZM33.3337 8.33366C33.3337 10.6462 31.4795 12.5003 29.167 12.5003C26.8545 12.5003 25.0003 10.6462 25.0003 8.33366C25.0003 6.02116 26.8753 4.16699 29.167 4.16699C31.4587 4.16699 33.3337 6.04199 33.3337 8.33366Z" fill="#FC0000"/>
</svg>
