<svg width="50" height="50" viewBox="0 0 50 50" fill="none" xmlns="http://www.w3.org/2000/svg">
<path d="M38.542 15.5622C37.0003 17.083 36.6045 19.2705 37.3337 21.1455L31.2503 27.2288V22.9163C31.2503 21.7705 30.3128 20.833 29.167 20.833H27.0212C27.0837 20.4788 27.0837 20.1455 27.0837 19.7913C27.0837 13.458 21.9587 8.33301 15.6253 8.33301C9.29199 8.33301 4.16699 13.458 4.16699 19.7913C4.16699 23.3538 5.79199 26.5205 8.33366 28.6247V41.6663C8.33366 42.8122 9.27116 43.7497 10.417 43.7497H29.167C30.3128 43.7497 31.2503 42.8122 31.2503 41.6663V33.1038L40.2712 24.083C42.1462 24.8122 44.3337 24.4372 45.8337 22.9163L38.542 15.5622ZM8.43783 20.833C8.39616 20.4788 8.33366 20.1455 8.33366 19.7913C8.33366 15.7705 11.6045 12.4997 15.6253 12.4997C19.6462 12.4997 22.917 15.7705 22.917 19.7913C22.917 20.1455 22.8545 20.4788 22.8128 20.833M27.0837 39.583H12.5003V24.9997H27.0837V39.583Z" fill="#FC0000"/>
</svg>
