<svg width="50" height="50" viewBox="0 0 50 50" fill="none" xmlns="http://www.w3.org/2000/svg">
<path d="M4.16699 45.8337V14.5837C4.16699 14.0311 4.38649 13.5012 4.77719 13.1105C5.16789 12.7198 5.69779 12.5003 6.25033 12.5003H14.5837V4.16699H35.417V12.5003H43.7503C44.3029 12.5003 44.8328 12.7198 45.2235 13.1105C45.6142 13.5012 45.8337 14.0311 45.8337 14.5837V45.8337H29.167V35.417H20.8337V45.8337H4.16699ZM18.7503 8.33366V20.8337H22.917V16.667H27.0837V20.8337H31.2503V8.33366H27.0837V12.5003H22.917V8.33366H18.7503ZM8.33366 41.667H16.667V35.417H8.33366V41.667ZM8.33366 31.2503H16.667V25.0003H8.33366V31.2503ZM33.3337 41.667H41.667V35.417H33.3337V41.667ZM33.3337 31.2503H41.667V25.0003H33.3337V31.2503ZM20.8337 31.2503H29.167V25.0003H20.8337V31.2503Z" fill="#FC0000"/>
</svg>
