<svg width="50" height="50" viewBox="0 0 50 50" fill="none" xmlns="http://www.w3.org/2000/svg">
<path d="M25 6.25C14.5833 6.25 6.25 14.5833 6.25 25C6.25 35.4167 14.5833 43.75 25 43.75C35.4167 43.75 43.75 35.4167 43.75 25C43.75 14.5833 35.4167 6.25 25 6.25ZM25 39.5833C16.875 39.5833 10.4167 33.125 10.4167 25C10.4167 16.875 16.875 10.4167 25 10.4167C33.125 10.4167 39.5833 16.875 39.5833 25C39.5833 33.125 33.125 39.5833 25 39.5833ZM42.7083 42.7083C47.2917 38.125 50 31.875 50 25C50 18.125 47.2917 11.875 42.7083 7.29167L40.4167 9.58333C44.375 13.5417 46.875 18.9583 46.875 25C46.875 31.0417 44.375 36.4583 40.4167 40.4167L42.7083 42.7083ZM9.58333 40.4167C5.625 36.4583 3.125 31.0417 3.125 25C3.125 18.9583 5.625 13.5417 9.58333 9.58333L7.29167 7.29167C2.70833 11.875 0 18.125 0 25C0 31.875 2.70833 38.125 7.29167 42.7083L9.58333 40.4167ZM19.7917 14.5833V35.4167H23.9583V27.0833H28.125C29.2301 27.0833 30.2899 26.6443 31.0713 25.8629C31.8527 25.0815 32.2917 24.0217 32.2917 22.9167V18.75C32.2917 17.6449 31.8527 16.5851 31.0713 15.8037C30.2899 15.0223 29.2301 14.5833 28.125 14.5833H19.7917ZM23.9583 18.75H28.125V22.9167H23.9583V18.75Z" fill="#FC0000"/>
</svg>
