<svg width="50" height="50" viewBox="0 0 50 50" fill="none" xmlns="http://www.w3.org/2000/svg">
<path d="M43.7503 20.8337H35.417V16.667L26.042 12.917V8.33366H31.2503V4.16699H23.9587V12.917L14.5837 16.667V20.8337H6.25033C5.10449 20.8337 4.16699 21.7712 4.16699 22.917V45.8337H20.8337V35.417H29.167V45.8337H45.8337V22.917C45.8337 21.7712 44.8962 20.8337 43.7503 20.8337ZM16.667 41.667H8.33366V35.417H16.667V41.667ZM16.667 31.2503H8.33366V25.0003H16.667V31.2503ZM25.0003 16.667C26.1462 16.667 27.0837 17.6045 27.0837 18.7503C27.0837 19.8962 26.1462 20.8337 25.0003 20.8337C23.8545 20.8337 22.917 19.8962 22.917 18.7503C22.917 17.6045 23.8545 16.667 25.0003 16.667ZM29.167 31.2503H20.8337V25.0003H29.167V31.2503ZM41.667 41.667H33.3337V35.417H41.667V41.667ZM41.667 31.2503H33.3337V25.0003H41.667V31.2503Z" fill="#FC0000"/>
</svg>
