<svg width="40" height="36" viewBox="0 0 40 36" fill="none" xmlns="http://www.w3.org/2000/svg">
<path d="M39.0863 25.8847L25.9084 3.37354C24.0357 0.144757 19.8562 -0.961607 16.5903 0.912439C15.5397 1.49949 14.6946 2.31233 14.078 3.37354L0.922937 25.8847C-0.972671 29.1134 0.146424 33.2228 3.41235 35.0517C4.44009 35.6839 5.60486 36 6.81531 36H33.194C36.9623 35.9774 40.0227 32.9519 39.9999 29.2263C39.9999 28.0522 39.6801 26.9007 39.0863 25.8847ZM4.96538 28.12L18.0748 5.63142C18.6914 4.57022 20.1074 4.1638 21.158 4.796C21.5234 4.97664 21.8203 5.27016 22.0259 5.63142L35.1352 28.12C35.7519 29.2038 35.3865 30.5359 34.2902 31.1907C33.9476 31.3939 33.5594 31.5068 33.1711 31.5068H6.88383C5.6277 31.4842 4.59996 30.4682 4.6228 29.2263C4.6228 28.8425 4.71415 28.4587 4.9197 28.12H4.96538ZM20.0389 19.1336C17.5266 19.1336 15.5397 17.1241 15.5397 14.6404C15.5397 12.1341 17.5266 10.1246 20.0389 10.1246C21.2503 10.1246 22.4121 10.6004 23.2688 11.4473C24.1254 12.2941 24.6066 13.4427 24.6066 14.6404C24.6066 17.1241 22.5511 19.1336 19.9932 19.1336H20.0389ZM14.3064 29.2489C11.7941 29.2489 9.7615 27.2394 9.7615 24.7557C9.7615 22.272 11.7941 20.2625 14.3064 20.2625C16.8186 20.2625 18.8741 22.272 18.8741 24.7557C18.8741 27.2394 16.8186 29.2489 14.3064 29.2489ZM25.68 29.2489C24.4765 29.243 23.324 28.7677 22.4729 27.9263C21.6219 27.085 21.1411 25.9456 21.1351 24.7557C21.1411 23.5659 21.6219 22.4265 22.4729 21.5851C23.324 20.7438 24.4765 20.2685 25.68 20.2625C28.1923 20.2625 30.2478 22.272 30.2478 24.7557C30.2478 27.2394 28.1923 29.2489 25.68 29.2489Z" fill="#FC0000"/>
</svg>
