<svg width="50" height="50" viewBox="0 0 50 50" fill="none" xmlns="http://www.w3.org/2000/svg">
<path d="M41.1872 15.0625L41.208 15.0417L33.458 7.29167L31.2497 9.5L35.6455 13.8958C33.6872 14.6458 32.2913 16.5208 32.2913 18.75C32.2913 19.434 32.4261 20.1112 32.6878 20.7431C32.9495 21.375 33.3332 21.9492 33.8168 22.4328C34.7936 23.4096 36.1183 23.9583 37.4997 23.9583C38.2497 23.9583 38.9372 23.7917 39.583 23.5208V38.5417C39.583 39.0942 39.3635 39.6241 38.9728 40.0148C38.5821 40.4055 38.0522 40.625 37.4997 40.625C36.9471 40.625 36.4172 40.4055 36.0265 40.0148C35.6358 39.6241 35.4163 39.0942 35.4163 38.5417V29.1667C35.4163 28.0616 34.9774 27.0018 34.196 26.2204C33.4145 25.439 32.3547 25 31.2497 25H29.1663V10.4167C29.1663 9.3116 28.7274 8.25179 27.946 7.47039C27.1645 6.68899 26.1047 6.25 24.9997 6.25H12.4997C11.3946 6.25 10.3348 6.68899 9.5534 7.47039C8.77199 8.25179 8.33301 9.3116 8.33301 10.4167V43.75H29.1663V28.125H32.2913V38.5417C32.2913 39.923 32.8401 41.2478 33.8168 42.2245C34.7936 43.2013 36.1183 43.75 37.4997 43.75C38.1836 43.75 38.8609 43.6153 39.4928 43.3535C40.1247 43.0918 40.6989 42.7082 41.1825 42.2245C41.6662 41.7409 42.0498 41.1667 42.3115 40.5348C42.5733 39.9029 42.708 39.2256 42.708 38.5417V18.75C42.708 17.3125 42.1247 16 41.1872 15.0625ZM24.9997 28.125V39.5833H12.4997V25H24.9997V28.125ZM24.9997 20.8333H12.4997V10.4167H24.9997V20.8333ZM37.4997 20.8333C36.9471 20.8333 36.4172 20.6138 36.0265 20.2231C35.6358 19.8324 35.4163 19.3025 35.4163 18.75C35.4163 18.1975 35.6358 17.6676 36.0265 17.2769C36.4172 16.8862 36.9471 16.6667 37.4997 16.6667C38.0522 16.6667 38.5821 16.8862 38.9728 17.2769C39.3635 17.6676 39.583 18.1975 39.583 18.75C39.583 19.3025 39.3635 19.8324 38.9728 20.2231C38.5821 20.6138 38.0522 20.8333 37.4997 20.8333Z" fill="#FC0000"/>
</svg>
