<svg width="45" height="50" viewBox="0 0 45 50" fill="none" xmlns="http://www.w3.org/2000/svg">
<path d="M40 5H37.5V0H32.5V5H12.5V0H7.5V5H5C2.25 5 0 7.25 0 10V45C0 47.775 2.25 50 5 50H40C42.775 50 45 47.775 45 45V10C45 7.25 42.775 5 40 5ZM40 45H5V20H40V45ZM40 15H5V10H40M22.5 22.5C27.5 22.5 30 28.55 26.475 32.1C22.925 35.65 16.875 33.125 16.875 28.125C16.875 25 19.375 22.5 22.5 22.5ZM33.75 42.2V42.5H11.25V42.2C11.25 39.075 16.25 36.575 22.5 36.575C28.75 36.575 33.75 39.075 33.75 42.2Z" fill="#FC0000"/>
</svg>
