<svg width="69" height="69" viewBox="0 0 69 69" fill="none" xmlns="http://www.w3.org/2000/svg">
<circle cx="34.5" cy="34.5" r="34.5" fill="#137E05"/>
<path d="M50 34C50 38.2435 48.3143 42.3131 45.3137 45.3137C42.3131 48.3143 38.2435 50 34 50C29.7565 50 25.6869 48.3143 22.6863 45.3137C19.6857 42.3131 18 38.2435 18 34C18 29.7565 19.6857 25.6869 22.6863 22.6863C25.6869 19.6857 29.7565 18 34 18C35.52 18 37 18.22 38.4 18.62L41.54 15.48C39.22 14.52 36.68 14 34 14C31.3736 14 28.7728 14.5173 26.3463 15.5224C23.9198 16.5275 21.715 18.0007 19.8579 19.8579C16.1071 23.6086 14 28.6957 14 34C14 39.3043 16.1071 44.3914 19.8579 48.1421C21.715 49.9993 23.9198 51.4725 26.3463 52.4776C28.7728 53.4827 31.3736 54 34 54C39.3043 54 44.3914 51.8929 48.1421 48.1421C51.8929 44.3914 54 39.3043 54 34M25.82 30.16L23 33L32 42L52 22L49.18 19.16L32 36.34L25.82 30.16Z" fill="#F5F5F5"/>
</svg>
