<svg width="30" height="30" viewBox="0 0 30 30" fill="none" xmlns="http://www.w3.org/2000/svg">
<path d="M8.33333 0H21.6667C26.2667 0 30 3.73333 30 8.33333V21.6667C30 26.2667 26.2667 30 21.6667 30H8.33333C3.73333 30 0 26.2667 0 21.6667V8.33333C0 3.73333 3.73333 0 8.33333 0ZM8.33333 3.33333C5.56667 3.33333 3.33333 5.56667 3.33333 8.33333V21.6667C3.33333 24.4333 5.56667 26.6667 8.33333 26.6667H21.6667C24.4333 26.6667 26.6667 24.4333 26.6667 21.6667V8.33333C26.6667 5.56667 24.4333 3.33333 21.6667 3.33333H8.33333Z" fill="#4F4F4F"/>
</svg>
