<svg width="30" height="30" viewBox="0 0 30 30" fill="none" xmlns="http://www.w3.org/2000/svg">
<path d="M1.5 18V19.5C1.5 22.365 3.105 24.855 5.475 26.115L4.5 30H7.5L8.25 27C8.505 27 8.745 27 9 27H21C21.255 27 21.495 27 21.75 27L22.5 30H25.5L24.525 26.115C26.895 24.855 28.5 22.365 28.5 19.5V18H30V15H3V4.5C3 4.10218 3.15803 3.72064 3.43934 3.43934C3.72064 3.15804 4.10218 3 4.5 3C5.25 3 5.82 3.51 6 4.185C5.055 4.995 4.5 6.195 4.5 7.5H13.5C13.5 6.30653 13.0259 5.16193 12.182 4.31802C11.3381 3.47411 10.1935 3 9 3C8.91 3 8.835 3 8.745 3C8.13 1.26 6.465 0 4.5 0C3.30653 0 2.16193 0.474106 1.31802 1.31802C0.474105 2.16193 0 3.30653 0 4.5V18H1.5ZM4.5 18H25.5V19.5C25.5 20.6935 25.0259 21.8381 24.182 22.682C23.3381 23.5259 22.1935 24 21 24H9C7.80653 24 6.66193 23.5259 5.81802 22.682C4.97411 21.8381 4.5 20.6935 4.5 19.5V18Z" fill="#4F4F4F"/>
</svg>
