<svg width="32" height="22" viewBox="0 0 32 22" fill="none" xmlns="http://www.w3.org/2000/svg">
<path d="M8.72727 13.2C11.1418 13.2 13.0909 11.2347 13.0909 8.8C13.0909 6.36533 11.1418 4.4 8.72727 4.4C6.31273 4.4 4.36364 6.36533 4.36364 8.8C4.36364 11.2347 6.31273 13.2 8.72727 13.2ZM8.72727 7.33333C9.52727 7.33333 10.1818 7.99333 10.1818 8.8C10.1818 9.60667 9.52727 10.2667 8.72727 10.2667C7.92727 10.2667 7.27273 9.60667 7.27273 8.8C7.27273 7.99333 7.92727 7.33333 8.72727 7.33333ZM26.1818 2.93333H14.5455V14.6667H2.90909V0H0V22H2.90909V17.6H29.0909V22H32V8.8C32 5.55867 29.3964 2.93333 26.1818 2.93333ZM29.0909 14.6667H17.4545V5.86667H26.1818C27.7818 5.86667 29.0909 7.18667 29.0909 8.8V14.6667Z" fill="#4F4F4F"/>
</svg>
